<svg width="28" height="28" viewBox="0 0 28 28" fill="none" xmlns="http://www.w3.org/2000/svg">
<g clip-path="url(#clip0_1047_2164)">
<path d="M26.1228 6.97253C24.8709 4.82771 23.1727 3.12951 21.0278 1.87761C18.8825 0.625786 16.5407 0 14.0004 0C11.4604 0 9.11786 0.625786 6.97298 1.87761C4.82796 3.12932 3.12976 4.82751 1.87781 6.97253C0.625786 9.11767 0 11.4602 0 14C0 16.54 0.625978 18.8821 1.87761 21.0274C3.12951 23.1722 4.8277 24.8704 6.97272 26.1224C9.11786 27.3742 11.4602 28.0001 14.0002 28.0001C16.5401 28.0001 18.8827 27.3742 21.0277 26.1224C23.1726 24.8709 24.8707 23.1722 26.1226 21.0274C27.3742 18.8823 27.9999 16.5398 27.9999 14C28 11.46 27.3742 9.11735 26.1228 6.97253ZM14.0002 2.04171C17.014 2.04171 19.6451 3.0382 21.8933 5.03113L21.6655 5.34993C21.5743 5.47775 21.3465 5.72357 20.982 6.08834C20.6175 6.4528 20.2195 6.79937 19.7881 7.12743C19.3563 7.45561 18.7703 7.82926 18.0287 8.24856C17.2874 8.66785 16.4975 9.03569 15.6588 9.35162C14.2614 6.77498 12.7667 4.4538 11.1746 2.38796C12.1349 2.15708 13.0766 2.04171 14.0002 2.04171ZM4.6306 6.5803C5.79719 5.11011 7.21886 3.97972 8.89611 3.18991C10.403 5.19509 11.8855 7.49213 13.344 10.0806C9.64954 11.0528 5.96735 11.539 2.29717 11.5388C2.68627 9.70381 3.46401 8.05081 4.6306 6.5803ZM2.84385 18.3116C2.30904 16.9444 2.04171 15.5071 2.04171 14C2.04171 13.8298 2.04796 13.7022 2.05997 13.6172C6.4595 13.6172 10.549 13.0523 14.3285 11.9218C14.7175 12.6752 15.0396 13.3497 15.2948 13.9454C15.2455 13.9696 15.1671 13.9968 15.0577 14.0273C14.9479 14.0577 14.8691 14.0788 14.8201 14.0911L14.1458 14.328C13.6838 14.4982 13.079 14.79 12.3319 15.203C11.5846 15.6166 10.7917 16.1085 9.95308 16.6798C9.11448 17.2512 8.24856 18.0077 7.35543 18.9498C6.46218 19.8916 5.71176 20.903 5.10411 21.9846C4.13188 20.903 3.37852 19.6783 2.84385 18.3116ZM14.0002 25.9585C11.1564 25.9585 8.61646 25.047 6.38026 23.2242L6.65373 23.4248C7.07903 22.4888 7.70482 21.5894 8.53141 20.7267C9.35787 19.8641 10.1538 19.168 10.9194 18.6392C11.685 18.1109 12.5175 17.6127 13.4169 17.1442C14.3161 16.6767 14.9295 16.3786 15.258 16.2514C15.5862 16.1238 15.8475 16.0233 16.0419 15.9503L16.0782 15.932H16.1149C17.3055 19.0552 18.1566 22.0815 18.6668 25.0103C17.1599 25.6426 15.6046 25.9584 14.0002 25.9585ZM24.0632 20.4623C23.1639 21.854 22.0395 23.0057 20.6909 23.9168C20.1923 21.1218 19.4149 18.2716 18.3573 15.3673C20.7757 14.9901 23.2609 15.1667 25.813 15.8956C25.5456 17.5484 24.9622 19.0709 24.0632 20.4623ZM25.7763 13.836C25.6248 13.8063 25.4729 13.779 25.3205 13.7541C25.1383 13.7239 24.9163 13.6872 24.6549 13.6447C24.394 13.6022 24.1019 13.5628 23.7801 13.5263C23.4372 13.4878 23.0937 13.4544 22.7498 13.4261C22.3854 13.3956 21.9964 13.3715 21.5834 13.3531C21.1643 13.3348 20.7448 13.3257 20.3253 13.3258C19.9003 13.3258 19.4533 13.3381 18.9856 13.3622C18.5314 13.3852 18.0784 13.4277 17.6279 13.4899C17.5912 13.429 17.5457 13.3287 17.4911 13.1889C17.4365 13.0493 17.3966 12.9428 17.3731 12.8698C17.11 12.2905 16.8424 11.7133 16.5703 11.1382C17.4089 10.7977 18.2081 10.4059 18.9681 9.9622C19.7274 9.51852 20.3346 9.1238 20.7907 8.77748C21.2424 8.43429 21.6745 8.066 22.0849 7.67436C22.4922 7.28552 22.7561 7.01524 22.8781 6.86328C22.9958 6.7162 23.1113 6.5673 23.2244 6.41666L23.2427 6.39827C25.017 8.56148 25.9227 11.0527 25.9587 13.8724L25.7763 13.836Z" fill="white"/>
</g>
<defs>
<clipPath id="clip0_1047_2164">
<rect width="28" height="28" fill="white"/>
</clipPath>
</defs>
</svg>
