<svg width="18" height="28" viewBox="0 0 18 28" fill="none" xmlns="http://www.w3.org/2000/svg">
<path fill-rule="evenodd" clip-rule="evenodd" d="M0.000729319 14.0007C0.000729319 12.8934 0.436337 11.8314 1.21172 11.0484C1.98711 10.2655 3.03876 9.82557 4.13532 9.82557H8.27137V18.1759H4.13532C3.03876 18.1759 1.98711 17.736 1.21172 16.953C0.436337 16.17 0.000729319 15.1081 0.000729319 14.0007ZM4.13532 8.35181H8.27137V0H4.13532C3.03857 1.65033e-08 1.98673 0.43996 1.21121 1.22309C0.435684 2.00623 0 3.06839 0 4.1759C0 5.28342 0.435684 6.34558 1.21121 7.12871C1.98673 7.91185 3.03857 8.35181 4.13532 8.35181ZM18 4.17517C18.0002 4.72358 17.8934 5.26666 17.6857 5.77339C17.478 6.28011 17.1735 6.74055 16.7895 7.12841C16.4056 7.51626 15.9497 7.82394 15.448 8.03385C14.9463 8.24377 14.4085 8.35181 13.8654 8.35181H9.73081V0H13.8654C14.962 0 16.0136 0.439882 16.789 1.22288C17.5644 2.00587 18 3.06784 18 4.17517ZM9.73081 14.0007C9.73081 12.8934 10.1664 11.8314 10.9418 11.0484C11.7172 10.2655 12.7688 9.82557 13.8654 9.82557C14.962 9.82557 16.0136 10.2655 16.789 11.0484C17.5644 11.8314 18 12.8934 18 14.0007C18 15.1081 17.5644 16.17 16.789 16.953C16.0136 17.736 14.962 18.1759 13.8654 18.1759C12.7688 18.1759 11.7172 17.736 10.9418 16.953C10.1664 16.17 9.73081 15.1081 9.73081 14.0007ZM4.13532 19.6497H8.27137V23.8263C8.27109 24.6519 8.02839 25.459 7.57396 26.1453C7.11954 26.8317 6.47379 27.3666 5.71835 27.6825C4.96291 27.9983 4.1317 28.0808 3.3298 27.9197C2.52791 27.7586 1.79133 27.3609 1.21318 26.7771C0.635038 26.1933 0.241286 25.4495 0.0817053 24.6397C-0.0778754 23.83 0.00388057 22.9906 0.316637 22.2277C0.629394 21.4649 1.15911 20.8128 1.83882 20.3539C2.51852 19.895 3.3177 19.65 4.13532 19.6497Z" fill="white"/>
</svg>
