<svg width="28" height="28" viewBox="0 0 28 28" fill="none" xmlns="http://www.w3.org/2000/svg">
<g clip-path="url(#clip0_1047_2111)">
<path d="M14 0C6.31039 0 0 6.31039 0 14C0 20.5618 4.60441 26.5226 10.7188 28V23.3682C10.1129 23.5009 9.55538 23.5047 8.93867 23.323C8.11125 23.0788 7.43898 22.5276 6.93995 21.6873C6.62189 21.1506 6.05812 20.5687 5.47001 20.6114L5.32585 18.9772C6.59755 18.8683 7.69765 19.752 8.35073 20.8492C8.64084 21.3371 8.97471 21.6232 9.40324 21.7496C9.8175 21.8716 10.2622 21.813 10.7805 21.63C10.9106 20.5924 11.3859 20.204 11.745 19.6571V19.6563C8.09845 19.1124 6.64519 17.1779 6.0684 15.6509C5.30403 13.6234 5.71419 11.0905 7.06579 9.48981C7.09204 9.45859 7.13951 9.37699 7.12113 9.31995C6.50141 7.448 7.25654 5.89941 7.28432 5.73519C7.99952 5.94661 8.11573 5.52234 10.3911 6.90473L10.7843 7.14098C10.9488 7.23904 10.8971 7.18309 11.0616 7.17068C12.0116 6.91261 13.0131 6.77015 13.9998 6.75735C14.994 6.77015 15.989 6.91266 16.9783 7.18118L17.1056 7.19398C17.0945 7.19228 17.1403 7.18583 17.2169 7.14016C20.0592 5.41855 19.9571 5.98123 20.7193 5.73344C20.7469 5.89794 21.492 7.47168 20.8789 9.31995C20.7962 9.57458 23.343 11.9067 21.9314 15.6502C21.3546 17.1778 19.9015 19.1124 16.255 19.6563V19.6571C16.7224 20.3696 17.284 20.7485 17.281 22.2183V28C23.3956 26.5226 27.9998 20.5618 27.9998 14C28 6.31039 21.6896 0 14 0Z" fill="white"/>
</g>
<defs>
<clipPath id="clip0_1047_2111">
<rect width="28" height="28" fill="white"/>
</clipPath>
</defs>
</svg>
