<svg width="28" height="28" viewBox="0 0 28 28" fill="none" xmlns="http://www.w3.org/2000/svg">
<g clip-path="url(#clip0_1047_2126)">
<path d="M20.4206 0H7.57934C3.40002 0 0 3.40002 0 7.57934V20.4208C0 24.5999 3.40002 27.9999 7.57934 27.9999H20.4208C24.5999 27.9999 27.9999 24.5999 27.9999 20.4208V7.57934C27.9999 3.40002 24.5999 0 20.4206 0ZM26.3584 20.4208C26.3584 23.6948 23.6948 26.3584 20.4206 26.3584H7.57934C4.30516 26.3584 1.6415 23.6948 1.6415 20.4208V7.57934C1.6415 4.30516 4.30516 1.6415 7.57934 1.6415H20.4208C23.6948 1.6415 26.3584 4.30516 26.3584 7.57934V20.4208Z" fill="white"/>
<path d="M13.9998 6.34401C9.77818 6.34401 6.34375 9.77838 6.34375 14C6.34375 18.2217 9.77813 21.6561 13.9998 21.6561C18.2214 21.6561 21.6558 18.2217 21.6558 14C21.6558 9.77838 18.2214 6.34401 13.9998 6.34401ZM13.9998 20.0146C10.6835 20.0146 7.98525 17.3166 7.98525 14C7.98525 10.6838 10.6835 7.98551 13.9998 7.98551C17.3163 7.98551 20.0143 10.6838 20.0143 14C20.0143 17.3166 17.3163 20.0146 13.9998 20.0146ZM21.8389 3.625C20.5913 3.625 19.5766 4.63995 19.5766 5.88726C19.5766 7.13484 20.5913 8.14973 21.8389 8.14973C23.0865 8.14973 24.1013 7.13484 24.1013 5.88731C24.1013 4.63978 23.0864 3.625 21.8389 3.625ZM21.8389 6.50807C21.4967 6.50807 21.2181 6.22949 21.2181 5.88726C21.2181 5.54486 21.4967 5.2665 21.8389 5.2665C22.1813 5.2665 22.4599 5.54486 22.4599 5.88726C22.4599 6.22949 22.1813 6.50807 21.8389 6.50807Z" fill="white"/>
</g>
<defs>
<clipPath id="clip0_1047_2126">
<rect width="28" height="28" fill="white"/>
</clipPath>
</defs>
</svg>
