<svg width="28" height="28" viewBox="0 0 28 28" fill="none" xmlns="http://www.w3.org/2000/svg">
<path d="M25.1998 25.2V16.996C25.1998 12.964 24.3318 9.88405 19.6278 9.88405C17.3598 9.88405 15.8478 11.116 15.2318 12.292H15.1758V10.248H10.7238V25.2H15.3718V17.78C15.3718 15.82 15.7358 13.944 18.1438 13.944C20.5238 13.944 20.5518 16.156 20.5518 17.892V25.172H25.1998V25.2ZM3.1638 10.248H7.8118V25.2H3.1638V10.248ZM5.4878 2.80005C4.0038 2.80005 2.7998 4.00405 2.7998 5.48805C2.7998 6.97205 4.0038 8.20405 5.4878 8.20405C6.9718 8.20405 8.1758 6.97205 8.1758 5.48805C8.1758 4.00405 6.9718 2.80005 5.4878 2.80005Z" fill="white"/>
</svg>
