<svg width="24" height="25" viewBox="0 0 24 25" fill="none" xmlns="http://www.w3.org/2000/svg">
<path d="M18.3168 14.3088C18.1683 14.2252 17.9999 14.1305 17.7971 14.0084C17.6839 13.9401 17.5415 13.8466 17.3907 13.7476C16.6166 13.2395 16.03 12.8799 15.5307 12.8799C15.4137 12.8799 15.3031 12.8997 15.2022 12.9386C14.7648 13.107 14.4055 13.5571 14.0581 13.9923C13.9308 14.1517 13.7486 14.38 13.638 14.482C13.1994 14.4023 12.2743 13.8292 11.2759 12.8308C10.2764 11.8313 9.70322 10.9051 9.62453 10.4676C9.72643 10.3566 9.95646 10.173 10.1169 10.0449C10.5504 9.69876 10.9987 9.34087 11.1681 8.90476C11.3842 8.34442 10.9882 7.67429 10.3592 6.71604C10.2602 6.56522 10.1667 6.42278 10.0988 6.31046C9.97633 6.10685 9.88164 5.93839 9.79809 5.78991C9.45514 5.18042 9.22855 4.77759 8.37713 4.77759C7.82453 4.77759 7.04324 5.29978 6.51402 5.81763C5.74492 6.57038 5.32129 7.43944 5.32129 8.26644C5.32275 10.5126 6.57631 13.0869 8.76057 15.332C8.76432 15.3358 8.76807 15.3368 8.77193 15.3405C11.017 17.5248 13.5928 18.7741 15.8389 18.7741H15.8397C16.6656 18.7741 17.535 18.3553 18.2877 17.5866C18.8059 17.0575 19.3288 16.2819 19.3288 15.7296C19.3289 14.8783 18.9263 14.6518 18.3168 14.3088ZM15.8391 17.6137C13.9259 17.6123 11.5921 16.4528 9.59494 14.512C7.65391 12.5147 6.49445 10.1806 6.49322 8.26761C6.49322 7.11044 7.99486 6.01022 8.38756 5.94993C8.46777 5.95028 8.50984 5.95503 8.52988 5.95843C8.5818 6.01819 8.68498 6.20159 8.77686 6.36489C8.86 6.51267 8.96354 6.69665 9.09537 6.91573C9.17506 7.04774 9.27443 7.19909 9.37961 7.35929C9.57865 7.66257 9.97879 8.27218 10.0462 8.53239C9.93344 8.69206 9.58346 8.97144 9.38588 9.12917C8.88016 9.53294 8.4434 9.88157 8.4434 10.3743C8.44463 11.5644 9.97762 13.1898 10.4474 13.6596C10.9172 14.1294 12.5426 15.6624 13.7353 15.6636C14.2248 15.662 14.572 15.2271 14.9741 14.7235C15.1326 14.5249 15.4137 14.1728 15.574 14.0606C15.8339 14.1276 16.4443 14.5282 16.7478 14.7275C16.908 14.8326 17.0593 14.9319 17.1921 15.0121C17.4105 15.1435 17.5944 15.247 17.7422 15.3301C17.9055 15.422 18.0889 15.5253 18.1487 15.5772C18.1521 15.5972 18.1568 15.6392 18.1572 15.7194C18.0964 16.1117 16.9959 17.6123 15.8391 17.6137Z" fill="white"/>
<path d="M23.9755 12.0562C23.9344 8.88972 22.6634 5.89757 20.3967 3.63087C18.0882 1.32239 15.0411 0.0510254 11.8164 0.0510254C8.70363 0.0510254 5.79164 1.2488 3.61676 3.42362C1.6868 5.35358 0.502735 7.92761 0.282481 10.6716C0.0735947 13.275 0.736349 15.9097 2.15156 18.1249L0.219024 23.3486C0.186243 23.4372 0.175371 23.5324 0.187335 23.6261C0.199298 23.7198 0.233743 23.8093 0.287733 23.8868C0.341722 23.9643 0.413656 24.0276 0.497401 24.0713C0.581147 24.1151 0.674222 24.1379 0.768692 24.1379C0.845802 24.1379 0.923614 24.1155 0.997384 24.0842L6.03053 21.9424C7.95193 23.1383 10.149 23.7546 12.4049 23.7546H12.4052C15.5174 23.7546 18.4294 22.5711 20.604 20.3965C22.8193 18.1812 24.0167 15.2283 23.9755 12.0562ZM19.7752 19.5821C17.8218 21.5355 15.2043 22.6113 12.4049 22.6112C10.2737 22.6111 8.20014 21.9874 6.40846 20.8072C6.32784 20.754 6.23535 20.7217 6.1392 20.713C6.04306 20.7042 5.94625 20.7194 5.85738 20.7571L1.78887 22.4827L3.35332 18.2539C3.38558 18.1667 3.39661 18.073 3.38551 17.9807C3.3744 17.8883 3.34148 17.7999 3.28945 17.7228C0.413907 13.4628 0.90006 7.79759 4.44539 4.25231C6.39891 2.2988 9.01664 1.2229 11.8164 1.2229C14.728 1.2229 17.4809 2.37233 19.568 4.4595C21.6175 6.50888 22.7665 9.21216 22.8037 12.0714C22.8408 14.9248 21.7652 17.5922 19.7752 19.5821Z" fill="white"/>
</svg>
